PathFileType	4	(X/Y/Z)	D:\Research_projects\MuscleProsody\BulkSports2Dtrack\RetrackedSports2D\p1_sample60_cam1\p1_sample60_cam1_Sports2D\p1_sample60_cam1_Sports2D_px_person00.trc
DataRate	CameraRate	NumFrames	NumMarkers	Units	OrigDataRate	OrigDataStartFrame	OrigNumFrames
60	60	8	22	m	60	390	780
Frame#	Time	Hip			RHip			RKnee			RAnkle			RBigToe			RSmallToe			RHeel			LHip			LKnee			LAnkle			LBigToe			LSmallToe			LHeel			Neck			Head			Nose			RShoulder			RElbow			RWrist			LShoulder			LElbow			LWrist		
		X1	Y1	Z1	X2	Y2	Z2	X3	Y3	Z3	X4	Y4	Z4	X5	Y5	Z5	X6	Y6	Z6	X7	Y7	Z7	X8	Y8	Z8	X9	Y9	Z9	X10	Y10	Z10	X11	Y11	Z11	X12	Y12	Z12	X13	Y13	Z13	X14	Y14	Z14	X15	Y15	Z15	X16	Y16	Z16	X17	Y17	Z17	X18	Y18	Z18	X19	Y19	Z19	X20	Y20	Z20	X21	Y21	Z21	X22	Y22	Z22
390	6.5	325.7671539115153	549.999952385733	0.0	301.85176680867096	565.106454985292	0.0	300.5067857591334	693.9318825758872	0.0	275.83219387793326	803.8388476161763	0.0	313.35603101629715	851.4597154938668	0.0	290.2200654573486	850.0783226302992	0.0	261.239964204764	817.0435765838365	0.0	348.75100218614455	557.8961577534596	0.0	338.2365313941392	684.3505373622799	0.0	314.1284355834071	785.973125132835	0.0	344.899426979136	828.123887974489	0.0	353.00860972743465	814.6657615368696	0.0	304.72752574578936	802.4938796875196	0.0	320.34471584123753	362.2686132899762	0.0	351.4515940863684	267.9860783501723	0.0	367.3288835062027	334.06475378241606	0.0	273.3062914620417	396.71572997018353	0.0	225.42422896684533	489.5944790701346	0.0	174.90261165596868	567.7931772721972	0.0	361.79893850363925	355.9261564845392	0.0	409.35412801743513	317.0800022326189	0.0	464.2080477686811	266.4515651442289	0.0
391	6.516666666666667	325.2079755656466	549.9312745375214	0.0	300.983588698122	565.013984101425	0.0	299.8003876647161	693.8937305801534	0.0	275.80201579314536	803.9965618101803	0.0	313.28847142997677	851.524231132192	0.0	289.92661606364567	850.0727918080498	0.0	261.3365180245285	817.2481969857511	0.0	348.40789081739666	558.1243312877604	0.0	337.8236550557857	684.5417885583332	0.0	314.089359862587	786.1750374961713	0.0	344.8040007775971	828.2425961343706	0.0	352.9796528044596	814.8444963457981	0.0	304.7351516305148	802.6520014005689	0.0	319.61716742315167	361.7725354747384	0.0	350.0253010056915	267.0356134541627	0.0	366.1960893668902	332.9781721519867	0.0	272.1476366905604	396.48418368024653	0.0	224.87402927266982	490.03107734599075	0.0	176.15040946611418	569.1323371285682	0.0	361.8414494953991	356.03865186943125	0.0	409.82269526901393	318.98191610000634	0.0	465.2943642151363	269.0737588774044	0.0
392	6.533333333333333	324.464582137969	549.7970015696884	0.0	299.8636829028409	564.7461078628752	0.0	298.7761829395397	693.7892176072559	0.0	275.7711688876652	804.1687606387844	0.0	313.2531363621191	851.550414730034	0.0	289.6048532288998	850.0606888858242	0.0	261.46609917021453	817.4897733653985	0.0	347.91740311299026	558.2720280737555	0.0	337.26175949874136	684.7143201799114	0.0	314.0077382834762	786.4044249480477	0.0	344.775726002999	828.3155130162569	0.0	352.9574148065653	815.0415816460012	0.0	304.73482970247255	802.8626317144642	0.0	319.1366203110173	360.97138212749275	0.0	349.0372324321728	265.7545205337257	0.0	365.2436971157881	331.51339884534246	0.0	271.05724076829006	395.8512408501542	0.0	224.31908717879526	489.57151581787343	0.0	177.32296084486302	569.0003911011223	0.0	362.1647985759749	356.21837447928874	0.0	410.6765099026066	321.709491298895	0.0	467.0483271843406	272.949621508095	0.0
393	6.55	323.57457470798727	549.6137854058068	0.0	298.54600602512346	564.3359479882487	0.0	297.4530049687336	693.6269466768806	0.0	275.7373303862656	804.346287777787	0.0	313.2378601635851	851.5511308007881	0.0	289.25311323153005	850.0463451134746	0.0	261.6363483101848	817.7558054428515	0.0	347.29805389978486	558.3653340971416	0.0	336.5475431134234	684.8677582841327	0.0	313.8918179966552	786.6478421606614	0.0	344.8083533179836	828.3325973274859	0.0	352.937354767515	815.2415302872757	0.0	304.717349117108	803.1136336111208	0.0	318.87543446140546	359.880793166248	0.0	348.4181285183178	264.1803554771869	0.0	364.4615983811257	329.6823136346475	0.0	270.02928540284586	394.8449765325129	0.0	223.80934084792543	488.3181910363007	0.0	178.52680783857826	567.5440724231555	0.0	362.7059592690088	356.46381178897576	0.0	411.78616158848	325.2735238776265	0.0	469.32168055904503	278.0791514196646	0.0
394	6.566666666666666	322.580263948709	549.4010833785288	0.0	297.0917714601254	563.8281550723042	0.0	295.8616528328641	693.4173041054543	0.0	275.69151255619414	804.5175622735923	0.0	313.2244943626514	851.5381275033079	0.0	288.8690933625317	850.0355204947506	0.0	261.8547674880626	818.032166396501	0.0	346.57317651519907	558.4356210025392	0.0	335.68971389960467	684.9978366880036	0.0	313.7568041629379	786.892663262345	0.0	344.8894962379962	828.2918433918712	0.0	352.9133625586601	815.4340977618872	0.0	304.6735327531562	803.392213294779	0.0	318.8073762065942	358.5260249537551	0.0	348.0954923558854	262.3623075590035	0.0	363.84192411568193	327.513080767859	0.0	269.06469188066666	393.4944345045088	0.0	223.39831980213526	486.3886865764309	0.0	179.8825621810111	564.9364625617237	0.0	363.38985561492785	356.78657700503913	0.0	412.98969379978365	329.6799811358259	0.0	471.93188917426556	284.45218129898217	0.0
395	6.583333333333333	321.52261829964806	549.1775806595151	0.0	295.56544443588524	563.2676791872727	0.0	294.0444487490529	693.169450715318	0.0	275.62294531809005	804.6710345590325	0.0	313.19018684780167	851.5249119882016	0.0	288.44846261944906	850.036198253006	0.0	262.1281055664921	818.3035162576894	0.0	345.76704925488355	558.5116000800709	0.0	334.71141688162265	685.0944560686308	0.0	313.6198170197949	787.1251545711314	0.0	345.00355362932373	828.1998515422566	0.0	352.87851725662557	815.6153484811603	0.0	304.5992543008297	803.6821212342303	0.0	318.9042318088735	356.9411935139915	0.0	348.00109285173005	260.3541898221718	0.0	363.37847050577415	325.05275603235066	0.0	268.1694369374689	391.84260367220156	0.0	223.1410019841077	483.91100425651337	0.0	181.5263500029143	561.3624619777719	0.0	364.1345696686307	357.1984078498936	0.0	414.1115772002756	334.9179139751437	0.0	474.68547549225246	292.0456004110729	0.0
396	6.6	320.4375582256176	548.9541768413632	0.0	294.0310947046921	562.6819150756158	0.0	292.0574624733586	692.884228545026	0.0	275.5237931901739	804.8019325024555	0.0	313.1092507314058	851.5302050575858	0.0	287.9833526253019	850.0588589142411	0.0	262.45878526947075	818.5580180006003	0.0	344.9023387219209	558.6020476070395	0.0	333.65093377356084	685.137957482044	0.0	313.49421476706385	787.3283782135676	0.0	345.1323521789752	828.0722841657484	0.0	352.8251477938105	815.7880622017078	0.0	304.49776943697594	803.9615133527365	0.0	319.13092341621575	355.1683758667142	0.0	348.0779268678228	258.2094898731385	0.0	363.06781097900705	322.3657339212596	0.0	267.350441086532	389.95646570204445	0.0	223.0901628710206	481.02636436330937	0.0	183.60548209800504	557.0124273193268	0.0	364.85585795629913	357.7002299338183	0.0	414.97939778394124	340.94598502643856	0.0	477.3947959875081	300.8205541917992	0.0
397	6.616666666666666	319.357948708921	548.7277188114705	0.0	292.5474688045242	562.0675264403106	0.0	289.97043639618005	692.5524384271165	0.0	275.389736207817	804.9160780330794	0.0	312.9581224145987	851.5666079453495	0.0	287.4669988090459	850.1125207205084	0.0	262.84278593309193	818.7944762983923	0.0	344.00528934645655	558.6780935238767	0.0	332.56135412125604	685.1000533059872	0.0	313.38582768020245	787.4833536413836	0.0	345.25686289277525	827.9278125759132	0.0	352.74782408069956	815.9545563462789	0.0	304.37422562151005	804.2069329423738	0.0	319.45005709623206	353.25716066531965	0.0	348.2867442614924	255.97591093314946	0.0	362.9036166146533	319.5297966535513	0.0	266.6165383223326	387.9149341874398	0.0	223.29147451884415	477.8886843964983	0.0	186.2629774329116	552.0857898635031	0.0	365.4760703180779	358.28462743615376	0.0	415.4334154787114	347.69133330207296	0.0	479.88659232187615	310.71910781267655	0.0
